# This file uses centimeters as units for non-parametric coordinates.

mtllib gem.mtl
g default
v -2.614702 -2.047171 3.095807
v -0.885610 0.506129 -7.232378
v 3.274992 1.076688 5.056494
v -1.276493 2.176241 3.291456
v -3.508119 -0.583313 5.169162
v -3.560516 -0.024173 -5.303376
v 3.279810 -1.504603 -3.479420
v 4.059518 1.496490 -0.789104
v -2.347859 2.260897 0.577281
v 0.014538 1.800099 -5.595209
v 2.258439 -0.607547 6.442649
v 1.650903 -1.489035 -5.519447
v -4.876137 -0.579158 1.259541
v 0.065900 -2.578915 0.217464
v -3.633132 1.616083 2.271866
v 2.935767 0.562308 -5.745456
v -4.977601 0.419162 1.048961
v 4.680838 -0.705569 2.021023
v -3.229439 1.210783 -4.626343
v 3.351386 -1.441844 3.492195
v 3.007236 1.491181 -4.137790
v 0.049734 -0.515104 7.215516
v -0.941505 -0.577139 -7.168789
v 0.636069 1.486624 5.970449
v 1.584391 0.558464 -6.790144
v -1.525179 0.548640 6.818979
v 4.896465 -0.488153 -1.355507
v -3.663498 -1.663642 -1.745360
v 0.130428 2.588957 -0.021404
v -4.699076 -0.522201 -2.176935
v 3.640636 -0.525931 -5.055754
v -3.974798 0.607349 4.258529
v -1.135933 -2.340727 -2.719857
v 4.770723 0.907245 1.474572
v -0.563600 -1.510568 5.957440
v 2.236710 2.254246 1.291678
v 1.301977 -2.312927 2.997788
v -4.659187 0.546037 -2.234960
v 3.953428 -0.516118 4.307183
v 1.533398 -0.502867 -6.873753
v -3.169973 -1.244413 -4.627879
v 0.773624 0.527667 7.218243
v 2.579573 -2.165611 -0.802223
v 3.886865 -1.670520 -0.623426
v -1.749144 1.538077 5.366682
v 1.905238 2.214433 -2.650094
v -4.064959 1.459040 -1.113217
v 4.408588 0.566788 -3.236081
v -4.042031 -1.514845 1.122185
v 0.293848 2.191903 3.713341
v -0.828672 -1.481120 -5.908861
v -1.551711 -0.514797 6.868030
v -2.097141 2.196141 -2.330701
v -2.842005 0.497939 5.916210
v 1.989464 -1.487174 5.269461
v 1.133882 -2.153401 -3.692081
vt 0.631732 0.719824
vt 0.820846 0.666682
vt 0.681057 0.594746
vt 0.492500 0.853208
vt 0.497241 0.658318
vt 0.354076 0.751147
vt 0.887210 0.278375
vt 0.778398 0.371349
vt 0.819886 0.237523
vt 0.718865 0.056253
vt 0.757477 0.114064
vt 0.614082 0.070654
vt 0.350482 0.310281
vt 0.324627 0.211883
vt 0.421280 0.226001
vt 0.483006 0.388002
vt 0.773817 0.779626
vt 0.866113 0.880838
vt 0.928077 0.764337
vt 0.587969 0.924231
vt 0.392207 0.897664
vt 0.439346 0.290783
vt 0.555571 0.334980
vt 0.363764 0.103018
vt 0.517148 0.041314
vt 0.524979 0.145851
vt 0.726679 0.905396
vt 0.810559 0.559903
vt 0.909240 0.640956
vt 0.886810 0.541948
vt 0.974751 0.646803
vt 0.473326 0.556342
vt 0.672408 0.529697
vt 0.544490 0.490189
vt 0.707820 0.479460
vt 0.627961 0.405817
vt 0.810172 0.381289
vt 0.680095 0.324637
vt 0.581207 0.232742
vt 0.693772 0.159525
vt 0.826320 0.117012
vt 0.871055 0.172761
vt 0.675995 0.430331
vt 0.535373 0.443466
vt 0.397934 0.402097
vt 0.288292 0.301042
vt 0.271195 0.206208
vt 0.326950 0.355365
vt 0.387355 0.624109
vt 0.431148 0.528634
vt 0.333360 0.608476
vt 0.310029 0.800315
vt 0.989023 0.769952
vt 0.898788 0.900271
vt 0.747555 0.956925
vt 0.581325 0.965735
vt 0.293220 0.720628
vt 0.024543 0.369686
vt 0.089670 0.253589
vt 0.110688 0.544402
vt 0.022210 0.141251
vt 0.011121 0.578137
vt 0.089393 0.098672
vt 0.089156 0.034177
vt 0.121149 0.765533
vt 0.023634 0.029016
vt 0.027884 0.823797
vt 0.074469 0.884728
vt 0.149909 0.516865
vt 0.149619 0.244738
vt 0.232495 0.308122
vt 0.224879 0.192740
vt 0.219396 0.531522
vt 0.228408 0.129904
vt 0.153873 0.756059
vt 0.154388 0.126489
vt 0.228227 0.760098
vt 0.188538 0.973673
vt 0.031119 0.916156
vt 0.031132 0.983755
vt 0.076021 0.982635
vt 0.992599 0.244151
vt 0.914293 0.318952
vt 0.963216 0.208147
vt 0.110688 0.544402
vt 0.110688 0.544402
vt 0.110688 0.544402
vt 0.011121 0.578137
vt 0.341705 0.492061
vt 0.138757 0.781932
vt 0.022816 0.719274
vt 0.022816 0.719274
vt 0.024543 0.369686
vn -0.030183 -0.999467 0.012455
vn 0.121435 -0.973643 -0.193060
vn 0.243845 -0.969123 -0.036612
vn -0.287925 -0.939745 0.184330
vn 0.117696 -0.980261 0.158859
vn -0.109730 -0.913915 0.390793
vn -0.253521 0.551598 -0.794649
vn -0.487469 0.783323 -0.385720
vn -0.037811 0.928472 -0.369473
vn 0.883961 0.373874 -0.280770
vn 0.432115 0.843870 -0.318056
vn 0.548330 0.834376 -0.056131
vn -0.271831 0.882618 0.383528
vn 0.115246 0.894617 0.431715
vn 0.111058 0.971336 0.210172
vn -0.527324 0.833620 0.164340
vn -0.172213 0.970949 0.166136
vn -0.255738 0.966287 0.029803
vn -0.162250 -0.978859 -0.124539
vn -0.499544 -0.784314 -0.367841
vn -0.131630 -0.899598 -0.416409
vn -0.579526 -0.810578 0.084337
vn -0.648805 -0.596039 0.473064
vn 0.948561 -0.283982 -0.139950
vn 0.786560 0.601155 0.141195
vn 0.056515 -0.535591 0.842585
vn 0.566851 -0.312584 0.762215
vn 0.247063 0.460555 0.852554
vn 0.581147 0.701921 0.411794
vn 0.292281 0.951159 0.099336
vn 0.876141 -0.161792 0.454093
vn -0.579675 0.811569 -0.073028
vn -0.778502 -0.013227 -0.627502
vn -0.199101 0.968453 -0.149855
vn 0.012122 0.999676 -0.022360
vn 0.182111 0.973804 -0.136165
vn 0.552940 0.585323 -0.593004
vn 0.360126 0.546299 -0.756219
vn -0.426856 -0.900772 -0.080029
vn -0.893621 0.391942 -0.218682
vn -0.893116 -0.426409 0.143245
vn -0.815557 0.440147 0.375682
vn -0.430286 -0.543943 0.720403
vn -0.322348 0.500342 0.803585
vn 0.496276 -0.838846 -0.223714
vn 0.252846 -0.861991 -0.439364
vn 0.767663 -0.408896 -0.493455
vn 0.347984 -0.464488 -0.814346
vn -0.891122 -0.412080 -0.189978
vn -0.914235 0.394585 0.092070
vn 0.465057 -0.864122 0.192392
vn 0.558469 -0.829096 -0.026695
vn 0.876173 -0.451709 0.168169
vn 0.273688 -0.878455 0.391678
vn -0.252517 -0.489175 -0.834831
vn -0.623588 0.431853 0.651645
s 1
g gem:Group60354
usemtl gem:defaultMat
f 14/1/1 56/2/2 43/3/3
f 1/4/4 37/5/5 35/6/6
f 2/7/7 19/8/8 10/9/9
f 48/10/10 21/11/11 8/12/12
f 45/13/13 24/14/14 50/15/15
f 15/16/16 4/22/17 9/23/18
f 33/17/19 41/18/20 51/19/21
f 49/20/22 1/4/4 5/21/23
f 27/93/24 48/59/10 34/60/25
f 22/79/26 11/67/27 42/68/28
f 3/24/29 34/25/25 36/26/30
f 39/91/31 34/87/25 3/65/29
f 47/36/32 15/16/16 9/23/18
f 2/7/7 6/37/33 19/8/8
f 10/9/9 53/38/34 29/39/35
f 8/12/12 46/40/36 36/26/30
f 11/51/27 39/50/31 3/89/29
f 14/1/1 43/3/3 37/5/5
f 56/2/2 33/17/19 51/19/21
f 16/41/37 25/42/38 10/9/9
f 28/27/39 1/4/4 49/20/22
f 6/37/33 38/43/40 19/8/8
f 14/1/1 37/5/5 1/4/4
f 33/17/19 1/4/4 28/27/39
f 13/69/41 5/70/23 32/71/42
f 52/80/43 42/68/28 26/81/44
f 7/28/45 12/29/46 31/30/47
f 12/29/46 40/31/48 31/30/47
f 30/75/49 13/69/41 17/73/50
f 13/69/41 32/71/42 17/73/50
f 20/32/51 44/33/52 18/34/53
f 44/33/52 31/30/47 27/35/24
f 10/9/9 19/8/8 53/38/34
f 19/8/8 47/36/32 53/38/34
f 55/49/54 39/50/31 11/51/27
f 35/6/6 55/49/54 11/51/27
f 16/41/37 10/9/9 21/11/11
f 46/40/36 10/9/9 29/39/35
f 1/4/4 52/52/43 5/21/23
f 5/70/23 52/76/43 26/74/44
f 23/83/55 6/37/33 2/7/7
f 12/29/46 23/53/55 40/31/48
f 24/14/14 3/24/29 50/15/15
f 11/67/27 3/90/29 42/68/28
f 25/42/38 2/7/7 10/9/9
f 40/82/48 23/83/55 2/7/7
f 5/70/23 54/72/56 32/71/42
f 15/16/16 45/13/13 4/22/17
f 18/34/53 44/33/52 27/35/24
f 18/88/53 27/58/24 34/85/25
f 23/53/55 41/18/20 6/54/33
f 6/78/33 30/75/49 38/77/40
f 9/23/18 4/22/17 29/39/35
f 50/15/15 3/24/29 36/26/30
f 41/18/20 30/55/49 6/54/33
f 28/27/39 13/56/41 30/55/49
f 27/93/24 31/61/47 48/59/10
f 31/61/47 25/64/38 16/63/37
f 17/44/50 32/45/42 15/16/16
f 32/45/42 45/13/13 15/16/16
f 14/1/1 33/17/19 56/2/2
f 33/17/19 14/1/1 1/4/4
f 34/25/25 8/12/12 36/26/30
f 34/25/25 48/10/10 8/12/12
f 1/4/4 35/6/6 52/52/43
f 35/6/6 11/51/27 22/57/26
f 36/26/30 46/40/36 29/39/35
f 50/15/15 36/26/30 29/39/35
f 37/5/5 55/49/54 35/6/6
f 37/5/5 44/33/52 20/32/51
f 30/75/49 17/73/50 38/77/40
f 17/44/50 15/16/16 47/36/32
f 39/92/31 18/62/53 34/86/25
f 20/32/51 18/34/53 39/50/31
f 31/61/47 40/66/48 25/64/38
f 40/82/48 2/7/7 25/84/38
f 41/18/20 28/27/39 30/55/49
f 33/17/19 28/27/39 41/18/20
f 26/46/44 42/47/28 24/14/14
f 42/47/28 3/24/29 24/14/14
f 43/3/3 56/2/2 7/28/45
f 44/33/52 7/28/45 31/30/47
f 37/5/5 43/3/3 44/33/52
f 43/3/3 7/28/45 44/33/52
f 26/46/44 24/14/14 45/13/13
f 32/45/42 54/48/56 45/13/13
f 8/12/12 21/11/11 46/40/36
f 21/11/11 10/9/9 46/40/36
f 38/43/40 17/44/50 47/36/32
f 19/8/8 38/43/40 47/36/32
f 48/10/10 16/41/37 21/11/11
f 31/61/47 16/63/37 48/59/10
f 28/27/39 49/20/22 13/56/41
f 49/20/22 5/21/23 13/56/41
f 4/22/17 50/15/15 29/39/35
f 45/13/13 50/15/15 4/22/17
f 51/19/21 41/18/20 23/53/55
f 12/29/46 51/19/21 23/53/55
f 35/6/6 22/57/26 52/52/43
f 52/80/43 22/79/26 42/68/28
f 53/38/34 9/23/18 29/39/35
f 47/36/32 9/23/18 53/38/34
f 5/70/23 26/74/44 54/72/56
f 54/48/56 26/46/44 45/13/13
f 55/49/54 20/32/51 39/50/31
f 37/5/5 20/32/51 55/49/54
f 56/2/2 12/29/46 7/28/45
f 56/2/2 51/19/21 12/29/46
