# This file uses centimeters as units for non-parametric coordinates.

mtllib domino7.mtl
g default
v 0.225167 -0.912722 1.751348
v 3.727863 -0.912722 1.751348
v 0.225167 0.912722 1.751348
v 3.727863 0.912722 1.751348
v 0.225167 0.912722 -1.751348
v 3.727863 0.912722 -1.751348
v 0.225167 -0.912722 -1.751348
v 3.727863 -0.912722 -1.751348
v -0.225167 -0.912722 1.751348
v -3.727863 -0.912722 1.751348
v -3.727863 0.912722 1.751348
v -0.225167 0.912722 1.751348
v -3.727863 0.912722 -1.751348
v -0.225167 0.912722 -1.751348
v -3.727863 -0.912722 -1.751348
v -0.225167 -0.912722 -1.751348
v 0.225167 0.764530 1.603159
v 0.225167 0.764530 -1.603163
v -0.225167 0.764530 -1.603163
v -0.225167 0.764530 1.603159
v 0.225167 -0.764530 -1.603163
v -0.225167 -0.764530 -1.603163
v 0.225167 -0.764530 1.603159
v -0.225167 -0.764530 1.603159
vt 0.796360 0.743252
vt 0.796360 0.546028
vt 0.976762 0.546028
vt 0.976762 0.743252
vt 0.585528 0.236478
vt 0.751900 0.236478
vt 0.751900 0.408894
vt 0.585528 0.408894
vt 0.976762 0.743252
vt 0.976762 0.546028
vt 0.796360 0.546028
vt 0.796360 0.743252
vt 0.585528 0.408894
vt 0.751900 0.408894
vt 0.751900 0.236478
vt 0.585528 0.236478
vt 0.792469 0.509915
vt 0.792469 0.068867
vt 0.975320 0.068867
vt 0.975320 0.509915
vt 0.796360 0.768608
vt 0.976762 0.768608
vt 0.976762 0.965832
vt 0.796360 0.965832
vt 0.564137 0.236478
vt 0.564137 0.408894
vt 0.397765 0.408894
vt 0.397765 0.236478
vt 0.976762 0.768608
vt 0.796360 0.768608
vt 0.796360 0.965832
vt 0.976762 0.965832
vt 0.564137 0.408894
vt 0.564137 0.236478
vt 0.397765 0.236478
vt 0.397765 0.408894
vt 0.792469 0.509915
vt 0.975320 0.509915
vt 0.975320 0.068867
vt 0.792469 0.068867
vt 0.585528 0.243773
vt 0.585528 0.401600
vt 0.564137 0.401600
vt 0.564137 0.243773
vt 0.962117 0.743252
vt 0.811005 0.743252
vt 0.811005 0.768608
vt 0.962117 0.768608
vt 0.585528 0.401600
vt 0.585528 0.243773
vt 0.564137 0.243773
vt 0.564137 0.401600
vt 0.811005 0.743252
vt 0.962117 0.743252
vt 0.962117 0.768608
vt 0.811005 0.768608
vt 0.964931 0.144002
vt 0.964931 0.468602
vt 0.951198 0.454870
vt 0.951198 0.157735
vt 0.967634 0.144003
vt 0.967634 0.468603
vt 0.953900 0.454870
vt 0.953900 0.157735
vt 0.795764 0.468602
vt 0.809498 0.454870
vt 0.798468 0.144003
vt 0.812201 0.157735
vt 0.795764 0.144002
vt 0.809498 0.157735
vt 0.798468 0.468603
vt 0.812201 0.454870
vn 0.000000 0.000000 1.000000
vn 0.000000 0.000000 1.000000
vn 0.000000 0.000000 1.000000
vn 0.000000 0.000000 1.000000
vn 0.000000 1.000000 0.000000
vn 0.000000 1.000000 0.000000
vn 0.000000 1.000000 0.000000
vn 0.000000 1.000000 0.000000
vn 0.000000 0.000000 -1.000000
vn 0.000000 0.000000 -1.000000
vn 0.000000 0.000000 -1.000000
vn 0.000000 0.000000 -1.000000
vn 0.000000 -1.000000 0.000000
vn 0.000000 -1.000000 0.000000
vn 0.000000 -1.000000 0.000000
vn 0.000000 -1.000000 0.000000
vn 1.000000 0.000000 0.000000
vn 1.000000 0.000000 0.000000
vn 1.000000 0.000000 0.000000
vn 1.000000 0.000000 0.000000
vn 0.000000 0.000000 1.000000
vn 0.000000 0.000000 1.000000
vn 0.000000 0.000000 1.000000
vn 0.000000 0.000000 1.000000
vn 0.000000 1.000000 0.000000
vn 0.000000 1.000000 0.000000
vn 0.000000 1.000000 0.000000
vn 0.000000 1.000000 0.000000
vn 0.000000 0.000000 -1.000000
vn 0.000000 0.000000 -1.000000
vn 0.000000 0.000000 -1.000000
vn 0.000000 0.000000 -1.000000
vn 0.000000 -1.000000 0.000000
vn 0.000000 -1.000000 0.000000
vn 0.000000 -1.000000 0.000000
vn 0.000000 -1.000000 0.000000
vn -1.000000 0.000000 0.000000
vn -1.000000 0.000000 0.000000
vn -1.000000 0.000000 0.000000
vn -1.000000 0.000000 0.000000
vn 0.000000 1.000000 0.000000
vn 0.000000 1.000000 0.000000
vn 0.000000 1.000000 0.000000
vn 0.000000 1.000000 0.000000
vn 0.000000 0.000000 -1.000000
vn 0.000000 0.000000 -1.000000
vn 0.000000 0.000000 -1.000000
vn 0.000000 0.000000 -1.000000
vn 0.000000 -1.000000 0.000000
vn 0.000000 -1.000000 0.000000
vn 0.000000 -1.000000 0.000000
vn 0.000000 -1.000000 0.000000
vn 0.000000 0.000000 1.000000
vn 0.000000 0.000000 1.000000
vn 0.000000 0.000000 1.000000
vn 0.000000 0.000000 1.000000
vn -1.000000 0.000000 0.000000
vn -1.000000 0.000000 0.000000
vn -1.000000 0.000000 0.000000
vn -1.000000 0.000000 0.000000
vn 1.000000 0.000000 0.000000
vn 1.000000 0.000000 0.000000
vn 1.000000 0.000000 0.000000
vn 1.000000 0.000000 0.000000
vn -1.000000 0.000000 0.000000
vn -1.000000 0.000000 0.000000
vn -1.000000 0.000000 0.000000
vn -1.000000 0.000000 0.000000
vn 1.000000 0.000000 0.000000
vn 1.000000 0.000000 0.000000
vn 1.000000 0.000000 0.000000
vn 1.000000 0.000000 0.000000
vn -1.000000 0.000000 0.000000
vn -1.000000 0.000000 0.000000
vn -1.000000 0.000000 0.000000
vn -1.000000 0.000000 0.000000
vn 1.000000 0.000000 0.000000
vn 1.000000 0.000000 0.000000
vn 1.000000 0.000000 0.000000
vn 1.000000 0.000000 0.000000
vn -1.000000 0.000000 0.000000
vn -1.000000 0.000000 0.000000
vn -1.000000 0.000000 0.000000
vn -1.000000 0.000000 0.000000
vn 1.000000 0.000000 0.000000
vn 1.000000 0.000000 0.000000
vn 1.000000 0.000000 0.000000
vn 1.000000 0.000000 0.000000
s off
g domino7 group1 dominosa:polySurface19
usemtl dominosa:lambert2SG
f 1/1/1 2/2/2 4/3/3 3/4/4
f 3/5/5 4/6/6 6/7/7 5/8/8
f 5/9/9 6/10/10 8/11/11 7/12/12
f 7/13/13 8/14/14 2/15/15 1/16/16
f 2/17/17 8/18/18 6/19/19 4/20/20
f 9/21/21 12/22/22 11/23/23 10/24/24
f 12/25/25 14/26/26 13/27/27 11/28/28
f 14/29/29 16/30/30 15/31/31 13/32/32
f 16/33/33 9/34/34 10/35/35 15/36/36
f 10/37/37 11/38/38 13/39/39 15/40/40
f 17/41/41 18/42/42 19/43/43 20/44/44
f 18/45/45 21/46/46 22/47/47 19/48/48
f 21/49/49 23/50/50 24/51/51 22/52/52
f 23/53/53 17/54/54 20/55/55 24/56/56
f 3/57/57 5/58/58 18/59/59 17/60/60
f 14/61/61 12/62/62 20/63/63 19/64/64
f 5/58/65 7/65/66 21/66/67 18/59/68
f 16/67/69 14/61/70 19/64/71 22/68/72
f 7/65/73 1/69/74 23/70/75 21/66/76
f 9/71/77 16/67/78 22/68/79 24/72/80
f 1/69/81 3/57/82 17/60/83 23/70/84
f 12/62/85 9/71/86 24/72/87 20/63/88
